<?xml version="1.0" encoding="UTF-8"?>
<svg id="Layer_2" data-name="Layer 2" xmlns="http://www.w3.org/2000/svg" viewBox="0 0 545.06 444.59">
  <defs>
    <style>
      .cls-1 {
        fill: #231f20;
      }

      .cls-1, .cls-2 {
        stroke-width: 0px;
      }

      .cls-2 {
        fill: #e57325;
      }
    </style>
  </defs>
  <g id="Layer_1-2" data-name="Layer 1">
    <g id="Layer_3" data-name="Layer 3">
      <path class="cls-2" d="M81.61,208.77l51.1,117.81,137.41-64.68,36.97-2.89,59.52,61.78,67,5.77,53.42-118.39s-405.86.19-405.42.6Z"/>
      <polygon class="cls-2" points="374.7 343.63 391.74 382.91 419.17 349.11 374.7 343.63"/>
      <polygon class="cls-2" points="57.05 129.08 450.65 129.08 391.45 3.47 349.1 85.09 320.42 67.57 337.74 31.48 264.38 0 219.75 34.42 200 17.32 57.05 129.08"/>
    </g>
    <g>
      <path class="cls-1" d="M9.9,177.16l-2.31,6.99H0l12.46-34.28h7.63l12.46,34.28h-8.08l-2.36-6.99h-12.22ZM19.95,170.76l-3.94-11.77-3.94,11.77h7.88Z"/>
      <path class="cls-1" d="M40.63,159.78v14.04c0,3.84,1.72,5.27,3.89,5.27,1.77,0,3.69-.84,5.17-1.92v-17.39h6.85v24.38h-6.35l-.49-1.77c-2.61,1.48-5.17,2.51-8.13,2.51-4.63,0-7.78-3.4-7.78-8.57v-16.55h6.85Z"/>
      <path class="cls-1" d="M76.49,159.97v5.57c-1.82-.69-5.12-1.23-7.44-1.23-1.92,0-2.76.79-2.76,1.82,0,3.2,11.28,3.55,11.28,11.33,0,5.17-4.43,7.44-9.46,7.44-2.96,0-6.06-.79-8.37-2.12v-4.83c2.61,1.03,5.66,1.82,8.32,1.82,1.77,0,2.86-.79,2.86-2.02,0-3.05-11.13-3.6-11.13-11.43,0-4.29,4.14-7.29,9.75-7.29,2.07,0,4.29.25,6.94.94Z"/>
      <path class="cls-1" d="M95.65,159.78v5.42h-7.04v10.59c0,2.51,1.63,3.4,3.79,3.4,1.38,0,2.71-.25,4.24-.59v5.07c-2.27.74-4.68,1.23-7.14,1.23-4.24,0-7.73-1.92-7.73-8.03v-11.67h-3.69v-5.42h3.69v-6.4h6.85v6.4h7.04Z"/>
      <path class="cls-1" d="M105.69,184.16h-6.85v-24.38h6.4l.49,3.2c1.18-2.02,3.6-3.94,6.35-3.94,1.08,0,2.27.2,3.3.64v5.86c-1.33-.3-2.51-.44-3.55-.44-2.36,0-4.19.94-6.16,4.24v14.83Z"/>
      <path class="cls-1" d="M136.08,177.41c0,1.48.3,2.32,1.48,2.32.39,0,.94-.1,1.53-.3v4.29c-1.48.64-2.96.99-4.33.99-2.46,0-4.48-1.18-5.17-3.6-2.07,2.22-4.68,3.55-7.63,3.55-3.69,0-6.55-2.51-6.55-6.3,0-4.43,3.05-8.47,13.84-9.85,0-2.76-.99-4.04-4.19-4.04s-7.19,1.87-7.88,2.22v-5.12c.79-.39,4.88-2.51,9.06-2.51,5.07,0,9.85,2.02,9.85,8.77v9.6ZM129.24,172.83c-3.4.49-6.5,2.12-6.5,4.43,0,1.23.64,1.92,2.02,1.92s3.3-.94,4.48-2.17v-4.19Z"/>
      <path class="cls-1" d="M148.15,147.26v30.14c0,2.32,1.58,2.71,3.99,2.02v4.29c-5.17,1.92-10.84,1.23-10.84-5.37v-31.08h6.85Z"/>
      <path class="cls-1" d="M157.95,147.86c2.22,0,4.04,1.82,4.04,3.99s-1.82,3.94-4.04,3.94-3.89-1.77-3.89-3.94,1.77-3.99,3.89-3.99ZM161.45,184.16h-6.85v-24.38h6.85v24.38Z"/>
      <path class="cls-1" d="M185.33,177.41c0,1.48.3,2.32,1.48,2.32.39,0,.94-.1,1.53-.3v4.29c-1.48.64-2.96.99-4.33.99-2.46,0-4.48-1.18-5.17-3.6-2.07,2.22-4.68,3.55-7.63,3.55-3.69,0-6.55-2.51-6.55-6.3,0-4.43,3.05-8.47,13.84-9.85,0-2.76-.99-4.04-4.19-4.04s-7.19,1.87-7.88,2.22v-5.12c.79-.39,4.88-2.51,9.06-2.51,5.07,0,9.85,2.02,9.85,8.77v9.6ZM178.49,172.83c-3.4.49-6.5,2.12-6.5,4.43,0,1.23.64,1.92,2.02,1.92s3.3-.94,4.48-2.17v-4.19Z"/>
      <path class="cls-1" d="M206.46,184.16v-14.04c0-3.84-1.72-5.27-3.89-5.27-1.77,0-3.69.84-5.17,1.92v17.39h-6.85v-24.38h6.35l.49,1.77c2.61-1.48,5.17-2.51,8.13-2.51,4.63,0,7.78,3.4,7.78,8.57v16.55h-6.85Z"/>
      <path class="cls-1" d="M242.81,184.16h-7.59v-27.88h-10.44v-6.4h28.47v6.4h-10.44v27.88Z"/>
      <path class="cls-1" d="M258.08,147.86c2.22,0,4.04,1.82,4.04,3.99s-1.82,3.94-4.04,3.94-3.89-1.77-3.89-3.94,1.77-3.99,3.89-3.99ZM261.57,184.16h-6.85v-24.38h6.85v24.38Z"/>
      <path class="cls-1" d="M273.34,147.26v30.14c0,2.32,1.58,2.71,3.99,2.02v4.29c-5.17,1.92-10.84,1.23-10.84-5.37v-31.08h6.85Z"/>
      <path class="cls-1" d="M285.11,174.16c.69,3.65,3.25,5.02,6.45,5.02,2.22,0,4.88-.59,7.63-1.43v5.17c-2.71,1.28-5.66,1.97-8.47,1.97-6.7,0-12.66-3.94-12.66-12.91,0-8.42,6.06-12.95,12.22-12.95,8.42,0,11.48,6.16,9.9,15.12h-15.07ZM285.11,169.23h8.87c.39-2.61-.79-4.83-3.69-4.83s-4.58,1.72-5.17,4.83Z"/>
      <path class="cls-1" d="M338.6,156.97c-2.71-.99-5.27-1.43-7.68-1.43-6.7,0-10.54,4.33-10.54,11.53,0,6.65,3.45,11.48,9.8,11.48,3.25,0,6.75-.74,9.41-1.67v6.01c-2.86,1.38-6.35,2.02-10.05,2.02-10.54,0-17.24-6.65-17.24-17.83,0-10.44,7.63-17.93,18.47-17.93,2.76,0,5.27.3,7.83,1.08v6.75Z"/>
      <path class="cls-1" d="M339.83,171.99c0-8.03,5.22-12.95,12.71-12.95,6.85,0,12.71,4.04,12.71,12.9,0,8.03-5.22,12.96-12.71,12.96-6.85,0-12.71-4.04-12.71-12.91ZM358.15,171.94c0-4.43-2.32-7.49-5.62-7.49s-5.62,2.02-5.62,7.54c0,4.43,2.32,7.49,5.62,7.49s5.62-2.02,5.62-7.54Z"/>
      <path class="cls-1" d="M375.05,159.78v14.04c0,3.84,1.72,5.27,3.89,5.27,1.77,0,3.69-.84,5.17-1.92v-17.39h6.85v24.38h-6.35l-.49-1.77c-2.61,1.48-5.17,2.51-8.13,2.51-4.63,0-7.78-3.4-7.78-8.57v-16.55h6.85Z"/>
      <path class="cls-1" d="M411.79,184.16v-14.04c0-3.84-1.72-5.27-3.89-5.27-1.77,0-3.69.84-5.17,1.92v17.39h-6.85v-24.38h6.35l.49,1.77c2.61-1.48,5.17-2.51,8.13-2.51,4.63,0,7.78,3.4,7.78,8.57v16.55h-6.85Z"/>
      <path class="cls-1" d="M440.75,165.93c-1.87-.64-3.74-1.03-5.52-1.03-3.65,0-6.55,1.77-6.55,7.09,0,4.88,2.27,7.19,6.16,7.19,1.97,0,4.53-.54,6.4-1.18v5.17c-2.27,1.18-4.83,1.72-7.88,1.72-5.52,0-11.77-3.84-11.77-12.91s6.5-12.95,13.1-12.95c2.07,0,4.14.39,6.06,1.18v5.71Z"/>
      <path class="cls-1" d="M446.8,147.86c2.22,0,4.04,1.82,4.04,3.99s-1.82,3.94-4.04,3.94-3.89-1.77-3.89-3.94,1.77-3.99,3.89-3.99ZM450.3,184.16h-6.85v-24.38h6.85v24.38Z"/>
      <path class="cls-1" d="M462.07,147.26v30.14c0,2.32,1.58,2.71,3.99,2.02v4.29c-5.17,1.92-10.84,1.23-10.84-5.37v-31.08h6.85Z"/>
      <path class="cls-1" d="M485.86,184.16h-7.59v-34.28h7.59v34.28Z"/>
      <path class="cls-1" d="M506.2,184.16v-14.04c0-3.84-1.72-5.27-3.89-5.27-1.77,0-3.69.84-5.17,1.92v17.39h-6.85v-24.38h6.35l.49,1.77c2.61-1.48,5.17-2.51,8.13-2.51,4.63,0,7.78,3.4,7.78,8.57v16.55h-6.85Z"/>
      <path class="cls-1" d="M535.16,165.93c-1.87-.64-3.74-1.03-5.52-1.03-3.64,0-6.55,1.77-6.55,7.09,0,4.88,2.27,7.19,6.16,7.19,1.97,0,4.53-.54,6.4-1.18v5.17c-2.27,1.18-4.83,1.72-7.88,1.72-5.52,0-11.77-3.84-11.77-12.91s6.5-12.95,13.1-12.95c2.07,0,4.14.39,6.06,1.18v5.71Z"/>
      <path class="cls-1" d="M540.43,175.54c2.61,0,4.63,2.02,4.63,4.68s-2.02,4.68-4.63,4.68-4.53-2.07-4.53-4.68,1.97-4.68,4.53-4.68Z"/>
    </g>
    <g>
      <path class="cls-1" d="M70.55,426.95h14.38v6.4h-21.97v-34.28h7.59v27.88Z"/>
      <path class="cls-1" d="M90.25,423.36c.69,3.65,3.25,5.02,6.45,5.02,2.22,0,4.88-.59,7.63-1.43v5.17c-2.71,1.28-5.66,1.97-8.47,1.97-6.7,0-12.66-3.94-12.66-12.91,0-8.42,6.06-12.95,12.22-12.95,8.42,0,11.48,6.16,9.9,15.12h-15.07ZM90.25,418.43h8.87c.39-2.61-.79-4.83-3.69-4.83s-4.58,1.72-5.17,4.83Z"/>
      <path class="cls-1" d="M128.13,426.61c0,1.48.3,2.32,1.48,2.32.39,0,.94-.1,1.53-.3v4.29c-1.48.64-2.96.99-4.33.99-2.46,0-4.48-1.18-5.17-3.6-2.07,2.22-4.68,3.55-7.63,3.55-3.69,0-6.55-2.51-6.55-6.3,0-4.43,3.05-8.47,13.84-9.85,0-2.76-.99-4.04-4.19-4.04s-7.19,1.87-7.88,2.22v-5.12c.79-.39,4.88-2.51,9.06-2.51,5.07,0,9.85,2.02,9.85,8.77v9.6ZM121.28,422.03c-3.4.49-6.5,2.12-6.5,4.43,0,1.23.64,1.92,2.02,1.92s3.3-.94,4.48-2.17v-4.19Z"/>
      <path class="cls-1" d="M148.91,431.58c-1.87,1.63-4.24,2.51-6.95,2.51-5.07,0-10.34-4.38-10.34-11.77,0-8.52,5.57-14.09,13.94-14.09,1.13,0,2.27.05,3.35.2v-11.97h6.85v36.89h-6.35l-.49-1.77ZM148.91,426.71v-12.17c-1.33-.59-2.76-.94-4.04-.94-3.69,0-6.26,2.66-6.26,7.78,0,4.78,2.91,6.9,5.96,6.9,1.28,0,2.76-.44,4.33-1.58Z"/>
      <path class="cls-1" d="M164.03,397.05c2.22,0,4.04,1.82,4.04,3.99s-1.82,3.94-4.04,3.94-3.89-1.77-3.89-3.94,1.77-3.99,3.89-3.99ZM167.53,433.36h-6.85v-24.38h6.85v24.38Z"/>
      <path class="cls-1" d="M188.36,433.36v-14.04c0-3.84-1.72-5.27-3.89-5.27-1.77,0-3.69.84-5.17,1.92v17.39h-6.85v-24.38h6.35l.49,1.77c2.61-1.48,5.17-2.51,8.13-2.51,4.63,0,7.78,3.4,7.78,8.57v16.55h-6.85Z"/>
      <path class="cls-1" d="M205.75,424.39c-1.03,1.43-.74,3.3,1.23,3.3h6.35c6.65,0,9.6,2.61,9.6,6.5,0,5.67-5.17,10.39-16.06,10.39-6.99,0-9.7-2.51-9.7-5.81,0-2.36,1.08-4.53,4.63-6.75-2.36-.89-3.5-5.02.2-9.11-2.07-1.38-3.5-3.3-3.5-6.4,0-5.12,4.48-8.27,10.89-8.27,1.77,0,3.45.25,4.97.74h8.87v3.99l-3.35,1.08c.2.74.35,1.53.35,2.41,0,5.12-4.48,8.27-10.84,8.27-1.28,0-2.51-.1-3.65-.34ZM204.37,437.05c0,1.72,1.33,3.2,4.43,3.2,3.99,0,6.99-1.82,6.99-4.09,0-1.77-1.43-2.81-4.43-2.81h-5.07c-1.28,1.13-1.92,2.51-1.92,3.69ZM213.28,416.51c0-2.22-1.63-3.94-3.89-3.94s-3.94,1.08-3.94,3.94c0,2.22,1.67,3.89,3.94,3.89s3.89-1.08,3.89-3.89Z"/>
      <path class="cls-2" d="M250.57,408.97v5.42h-7.04v10.59c0,2.51,1.63,3.4,3.79,3.4,1.38,0,2.71-.25,4.24-.59v5.07c-2.27.74-4.68,1.23-7.14,1.23-4.24,0-7.73-1.92-7.73-8.03v-11.67h-3.69v-5.42h3.69v-6.4h6.85v6.4h7.04Z"/>
      <path class="cls-2" d="M269.68,433.36v-14.04c0-3.84-1.72-5.27-3.89-5.27-1.77,0-3.69.84-5.17,1.92v17.39h-6.85v-36.89h6.85v14.28c2.61-1.48,5.17-2.51,8.13-2.51,4.63,0,7.78,3.4,7.78,8.57v16.55h-6.85Z"/>
      <path class="cls-2" d="M286.52,423.36c.69,3.65,3.25,5.02,6.45,5.02,2.22,0,4.88-.59,7.63-1.43v5.17c-2.71,1.28-5.66,1.97-8.47,1.97-6.7,0-12.66-3.94-12.66-12.91,0-8.42,6.06-12.95,12.22-12.95,8.42,0,11.48,6.16,9.9,15.12h-15.07ZM286.52,418.43h8.87c.39-2.61-.79-4.83-3.69-4.83s-4.58,1.72-5.17,4.83Z"/>
      <path class="cls-2" d="M322.77,433.36h-7.59v-34.28h7.59v34.28Z"/>
      <path class="cls-2" d="M343.11,433.36v-14.04c0-3.84-1.72-5.27-3.89-5.27-1.77,0-3.69.84-5.17,1.92v17.39h-6.85v-24.38h6.35l.49,1.77c2.61-1.48,5.17-2.51,8.13-2.51,4.63,0,7.78,3.4,7.78,8.57v16.55h-6.85Z"/>
      <path class="cls-2" d="M370.2,431.58c-1.87,1.63-4.24,2.51-6.95,2.51-5.07,0-10.34-4.38-10.34-11.77,0-8.52,5.57-14.09,13.94-14.09,1.13,0,2.27.05,3.35.2v-11.97h6.85v36.89h-6.35l-.49-1.77ZM370.2,426.71v-12.17c-1.33-.59-2.76-.94-4.04-.94-3.69,0-6.26,2.66-6.26,7.78,0,4.78,2.91,6.9,5.96,6.9,1.28,0,2.76-.44,4.33-1.58Z"/>
      <path class="cls-2" d="M388.56,408.97v14.04c0,3.84,1.72,5.27,3.89,5.27,1.77,0,3.69-.84,5.17-1.92v-17.39h6.85v24.38h-6.35l-.49-1.77c-2.61,1.48-5.17,2.51-8.13,2.51-4.63,0-7.78-3.4-7.78-8.57v-16.55h6.85Z"/>
      <path class="cls-2" d="M424.42,409.17v5.57c-1.82-.69-5.12-1.23-7.44-1.23-1.92,0-2.76.79-2.76,1.82,0,3.2,11.28,3.55,11.28,11.33,0,5.17-4.43,7.44-9.46,7.44-2.96,0-6.06-.79-8.37-2.12v-4.83c2.61,1.03,5.67,1.82,8.32,1.82,1.77,0,2.86-.79,2.86-2.02,0-3.05-11.13-3.6-11.13-11.43,0-4.29,4.14-7.29,9.75-7.29,2.07,0,4.29.25,6.95.94Z"/>
      <path class="cls-2" d="M443.58,408.97v5.42h-7.04v10.59c0,2.51,1.63,3.4,3.79,3.4,1.38,0,2.71-.25,4.24-.59v5.07c-2.27.74-4.68,1.23-7.14,1.23-4.24,0-7.73-1.92-7.73-8.03v-11.67h-3.69v-5.42h3.69v-6.4h6.85v6.4h7.04Z"/>
      <path class="cls-2" d="M453.62,433.36h-6.85v-24.38h6.4l.49,3.2c1.18-2.02,3.6-3.94,6.35-3.94,1.08,0,2.27.2,3.3.64v5.86c-1.33-.3-2.51-.44-3.55-.44-2.36,0-4.19.94-6.16,4.24v14.83Z"/>
      <path class="cls-2" d="M469.14,408.97l5.66,17.14,5.67-17.14h6.8l-12.61,34.73h-6.85l3.35-9.11-9.31-25.61h7.29Z"/>
    </g>
  </g>
</svg>